<svg width="24" height="24" viewBox="0 0 24 24" fill="none" xmlns="http://www.w3.org/2000/svg">
<path fill-rule="evenodd" clip-rule="evenodd" d="M19.8888 5.83358C20.3501 4.74622 19.2538 3.64992 18.1665 4.11123L4.80071 9.78156C3.68475 10.255 3.75092 11.8585 4.90208 12.2383L9.58133 13.7825C9.88224 13.8818 10.1183 14.1178 10.2176 14.4187L11.7617 19.098C12.1416 20.2491 13.7451 20.3153 14.2185 19.1994L19.8888 5.83358ZM17.3854 2.27006C20.1282 1.10643 22.8936 3.87183 21.73 6.61468L16.0597 19.9805C14.8654 22.7954 10.8207 22.6285 9.86247 19.7247L8.47619 15.5239L4.27533 14.1376C1.37153 13.1793 1.20463 9.13463 4.01961 7.94039L17.3854 2.27006Z" fill="white"/>
</svg>
